<?xml version="1.0" standalone="no"?>
<!DOCTYPE svg PUBLIC "-//W3C//DTD SVG 20010904//EN"
 "http://www.w3.org/TR/2001/REC-SVG-20010904/DTD/svg10.dtd">
<svg version="1.0" xmlns="http://www.w3.org/2000/svg"
 width="225.000000pt" height="225.000000pt" viewBox="0 0 225.000000 225.000000"
 preserveAspectRatio="xMidYMid meet">

<g transform="translate(0.000000,225.000000) scale(0.100000,-0.100000)"
fill="#000000" stroke="none">
<path d="M131 2172 c-19 -10 -43 -34 -53 -53 -17 -32 -18 -82 -18 -962 0
-1016 -3 -967 58 -1012 27 -20 43 -20 979 -20 l953 0 37 38 38 37 0 953 c0
936 0 952 -20 979 -45 61 4 58 -1012 58 -880 0 -930 -1 -962 -18z m1920 -61
l29 -29 0 -927 0 -927 -29 -29 -29 -29 -927 0 -927 0 -29 29 -29 29 0 927 0
927 29 29 29 29 927 0 927 0 29 -29z"/>
<path d="M810 1495 l0 -225 36 0 36 0 -4 140 c-2 77 -1 140 2 140 3 0 32 -63
64 -140 l59 -140 33 0 34 0 0 225 0 225 -36 0 -35 0 3 -140 c2 -77 1 -140 -2
-140 -3 0 -32 63 -64 140 l-59 140 -33 0 -34 0 0 -225z"/>
<path d="M1198 1693 c-36 -38 -48 -73 -55 -162 -11 -152 40 -262 124 -265 92
-2 136 71 136 228 0 161 -38 226 -132 226 -38 0 -52 -5 -73 -27z m126 -77 c14
-29 19 -61 19 -121 0 -100 -23 -158 -64 -163 -37 -4 -58 26 -71 101 -12 76 2
179 29 209 28 31 65 20 87 -26z"/>
<path d="M230 1010 c0 -27 3 -30 30 -30 l30 0 0 -195 0 -195 30 0 30 0 0 195
0 195 25 0 c21 0 25 5 25 30 l0 30 -85 0 -85 0 0 -30z"/>
<path d="M450 815 l0 -225 30 0 30 0 0 105 c0 84 3 105 14 105 10 0 21 -29 35
-89 12 -49 21 -96 21 -105 0 -11 9 -16 30 -16 36 0 36 1 10 108 -25 103 -25
108 0 139 22 28 27 103 10 148 -13 33 -64 55 -130 55 l-50 0 0 -225z m134 133
c16 -45 -3 -82 -42 -86 l-32 -3 0 61 0 61 32 -3 c25 -2 35 -9 42 -30z"/>
<path d="M760 1035 c0 -2 -20 -102 -45 -222 -25 -119 -45 -218 -45 -220 0 -2
13 -3 29 -3 25 0 30 4 35 38 13 70 15 72 56 72 l39 0 11 -55 c11 -52 13 -55
41 -55 25 0 29 3 24 23 -11 48 -85 411 -85 419 0 4 -13 8 -30 8 -16 0 -30 -2
-30 -5z m47 -220 l10 -55 -29 0 c-23 0 -28 4 -24 18 3 9 8 34 12 55 3 20 9 37
13 37 4 0 12 -25 18 -55z"/>
<path d="M960 815 l0 -225 30 0 30 0 0 225 0 225 -30 0 -30 0 0 -225z"/>
<path d="M1100 815 l0 -225 85 0 c84 0 85 0 85 25 0 24 -3 25 -55 25 l-55 0 0
200 0 200 -30 0 -30 0 0 -225z"/>
<path d="M1320 815 l0 -225 85 0 c84 0 85 0 85 25 0 24 -3 25 -55 25 l-55 0 0
80 0 80 35 0 c32 0 35 2 35 30 0 28 -3 30 -35 30 l-35 0 0 60 0 60 55 0 c54 0
55 0 55 30 l0 30 -85 0 -85 0 0 -225z"/>
<path d="M1550 815 l0 -225 30 0 30 0 0 105 c0 86 3 105 15 105 15 0 19 -10
44 -130 15 -70 18 -75 44 -78 15 -2 27 0 27 5 0 4 -10 54 -22 111 l-21 102 21
23 c26 28 36 91 19 137 -15 45 -64 70 -134 70 l-53 0 0 -225z m130 146 c14
-26 13 -74 -2 -89 -7 -7 -25 -12 -40 -12 -28 0 -28 1 -28 60 0 60 0 60 30 60
19 0 33 -7 40 -19z"/>
<path d="M1814 1013 c-23 -24 -25 -35 -22 -80 4 -43 12 -61 45 -100 65 -79 75
-97 71 -145 -3 -38 -6 -43 -29 -46 -22 -3 -29 2 -37 27 -8 24 -17 31 -36 31
-32 0 -35 -30 -6 -77 33 -55 119 -54 156 2 13 20 15 39 11 81 -6 57 -23 89
-86 164 -39 46 -48 82 -26 104 21 21 37 17 50 -12 7 -15 19 -22 38 -22 27 0
29 2 22 28 -18 73 -102 98 -151 45z"/>
</g>
</svg>
